# xmcd
# Copyright (C) 1995-1998 Ti Kan
#
# Track frame offsets:
#       150
#       17083
#       43511
#       61136
#       75989
#       91243
#       124511
#       142123
#       157950
#       175126
#       196287
#       213430
#       230677
#       246124
#
# Disc length: 3486 seconds
#
# Revision: 13
# Processed by: cddbd v1.5.1PL0 Copyright (c) Steve Scherf et al.
# Submitted via: CD-Transfer v1.0
#
DISCID=b00d9c0e
DTITLE=Roc Project Ft. Tina Novak - Euro Express 575
DYEAR=04
DGENRE=
TTITLE0=Play This Song (Get Far Short)
TTITLE1=Magia
TTITLE2=The Hooligirls
TTITLE3=Le Digital
TTITLE4=Alpha Beta Gaga (Mark Ronson Rmx)
TTITLE5=New York Taxi
TTITLE6=Dirty Punk (Edit)
TTITLE7=City Of Dreams (Radio Vers.)
TTITLE8=Steppin' Out
TTITLE9=Perception
TTITLE10=Word Of Fire (Junkie Xl Radio Mix)
TTITLE11=Cha Cha Heads (Ralphi Rosario Radio Edit)
TTITLE12=I'm Ready (Dave Aude Edit)
TTITLE13=Deja Vu (It's Hard To Believe)(Ray Roc Radio Edit)
EXTD=
EXTT0=
EXTT1=
EXTT2=
EXTT3=
EXTT4=
EXTT5=
EXTT6=
EXTT7=
EXTT8=
EXTT9=
EXTT10=
EXTT11=
EXTT12=
EXTT13=
PLAYORDER=
